<svg color="#eb8909" width="24" height="24" fill="none" xmlns="http://www.w3.org/2000/svg" class="yeJ7DFSh0CB61w0UHm64kQ=="><path opacity=".1" fill-rule="evenodd" clip-rule="evenodd" d="M13 6.5A1.5 1.5 0 0 1 14.5 5h3A1.5 1.5 0 0 1 19 6.5v3a1.5 1.5 0 0 1-1.5 1.5h-3A1.5 1.5 0 0 1 13 9.5v-3zM6.5 13A1.5 1.5 0 0 0 5 14.5v3A1.5 1.5 0 0 0 6.5 19h3a1.5 1.5 0 0 0 1.5-1.5v-3A1.5 1.5 0 0 0 9.5 13h-3zm8 0a1.5 1.5 0 0 0-1.5 1.5v3a1.5 1.5 0 0 0 1.5 1.5h3a1.5 1.5 0 0 0 1.5-1.5v-3a1.5 1.5 0 0 0-1.5-1.5h-3zm-8-8A1.5 1.5 0 0 0 5 6.5v3A1.5 1.5 0 0 0 6.5 11h3A1.5 1.5 0 0 0 11 9.5v-3A1.5 1.5 0 0 0 9.5 5h-3z" fill="currentColor"/><path fill-rule="evenodd" clip-rule="evenodd" d="M17.5 6h-3a.5.5 0 0 0-.5.5v3a.5.5 0 0 0 .5.5h3a.5.5 0 0 0 .5-.5v-3a.5.5 0 0 0-.5-.5zm-3-1A1.5 1.5 0 0 0 13 6.5v3a1.5 1.5 0 0 0 1.5 1.5h3A1.5 1.5 0 0 0 19 9.5v-3A1.5 1.5 0 0 0 17.5 5h-3zm-8 9h3a.5.5 0 0 1 .5.5v3a.5.5 0 0 1-.5.5h-3a.5.5 0 0 1-.5-.5v-3a.5.5 0 0 1 .5-.5zm-1.5.5A1.5 1.5 0 0 1 6.5 13h3a1.5 1.5 0 0 1 1.5 1.5v3A1.5 1.5 0 0 1 9.5 19h-3A1.5 1.5 0 0 1 5 17.5v-3zm9.5-.5h3a.5.5 0 0 1 .5.5v3a.5.5 0 0 1-.5.5h-3a.5.5 0 0 1-.5-.5v-3a.5.5 0 0 1 .5-.5zm-1.5.5a1.5 1.5 0 0 1 1.5-1.5h3a1.5 1.5 0 0 1 1.5 1.5v3a1.5 1.5 0 0 1-1.5 1.5h-3a1.5 1.5 0 0 1-1.5-1.5v-3zM6.5 6h3a.5.5 0 0 1 .5.5v3a.5.5 0 0 1-.5.5h-3a.5.5 0 0 1-.5-.5v-3a.5.5 0 0 1 .5-.5zM5 6.5A1.5 1.5 0 0 1 6.5 5h3A1.5 1.5 0 0 1 11 6.5v3A1.5 1.5 0 0 1 9.5 11h-3A1.5 1.5 0 0 1 5 9.5v-3z" fill="currentColor"/></svg>